<svg width="150" height="192" viewBox="0 0 150 192" fill="none" xmlns="http://www.w3.org/2000/svg">
<circle cx="75" cy="96" r="75" fill="#C778DD"/>
<path d="M67.656 52.04C77.128 52.04 85.4053 53.8747 92.488 57.544C99.656 61.128 105.16 66.3333 109 73.16C112.925 79.9013 114.888 87.7947 114.888 96.84C114.888 105.885 112.925 113.736 109 120.392C105.16 127.048 99.656 132.168 92.488 135.752C85.4053 139.251 77.128 141 67.656 141H38.6V52.04H67.656ZM67.656 129.096C78.0667 129.096 86.0453 126.28 91.592 120.648C97.1387 115.016 99.912 107.08 99.912 96.84C99.912 86.5147 97.1387 78.4507 91.592 72.648C86.0453 66.8453 78.0667 63.944 67.656 63.944H53.192V129.096H67.656Z" fill="white"/>
</svg>
